<?xml version="1.0" encoding="UTF-8"?>
<svg id="Camada_2" data-name="Camada 2" xmlns="http://www.w3.org/2000/svg" viewBox="0 0 1629.18 372.7">
  <defs>
    <style>
      .cls-1 {
        fill: #28c4ff;
      }

      .cls-2 {
        fill: #28a0ff;
      }
    </style>
  </defs>
  <g id="Camada_1-2" data-name="Camada 1">
    <g>
      <path d="M449.88,114.19c3.62-8.72,12.03-12.32,20.75-12.32s16.85,3.61,20.14,12.32l61.64,144.04c4.82,10.52,0,22.55-10.53,26.75-2.7,1.52-5.11,1.8-8.11,1.8-7.82,0-15.34-4.51-18.65-12.32l-8.41-19.54h-72.48l-8.42,19.54c-3.3,7.82-10.82,12.32-18.64,12.32-2.69,0-5.71-.29-8.41-1.8-10.52-4.2-15.34-16.23-10.52-26.75l61.64-144.04ZM470.63,170.42l-18.95,43.3h36.99l-18.04-43.3Z"/>
      <path d="M635.7,149.07c37.58,0,68.26,30.68,68.26,68.86s-30.68,68.86-68.26,68.86c-11.73,0-22.26-2.1-31.58-6.91v35.48c0,10.52-8.42,18.95-18.64,18.95s-18.95-8.42-18.95-18.95v-97.44c0-38.18,30.68-68.86,69.17-68.86ZM635.7,186.67c-17.44,0-31.57,14.13-31.58,31.26,0,17.44,14.13,31.27,31.58,31.27s30.97-13.82,30.97-31.27-14.13-31.26-30.97-31.26Z"/>
      <path d="M784.27,149.07c10.23,0,18.65,8.42,18.65,18.95s-8.41,18.65-18.64,18.65c-14.73,0-25.86,11.42-25.86,25.85v56.53c0,10.52-8.72,18.95-18.95,18.95s-18.65-8.42-18.65-18.95v-56.53c0-34.88,28.56-63.45,63.45-63.45Z"/>
      <path d="M877.66,149.07c37.89,0,68.56,30.68,68.56,68.86s-30.67,68.86-68.56,68.86-68.86-30.66-68.86-68.86,30.67-68.86,68.86-68.86ZM877.66,186.67c-17.44,0-31.57,14.13-31.57,31.26s14.13,31.27,31.57,31.27,30.98-13.82,30.98-31.27-14.14-31.26-30.98-31.26Z"/>
      <path d="M956.82,176.44c-4.51-9.62-.9-20.75,8.71-25.26,2.41-1.21,5.41-2.11,8.72-2.11,6.62,0,12.93,3.91,16.24,10.23l34.88,68.56,34.88-68.56c3.61-6.31,9.92-10.23,16.83-10.23,2.72,0,5.72.9,8.72,2.11,9.03,4.51,12.94,15.63,8.13,25.26l-51.71,100.74c-3.31,6.61-9.92,10.23-16.83,10.23s-13.84-3.62-17.14-10.23l-51.42-100.74Z"/>
      <path d="M1173.29,149.07c37.89,0,68.56,30.68,68.56,68.86v50.22c0,10.23-7.82,18.64-18.95,18.64-6.62,0-12.03-3.3-15.34-8.71-10.52,5.4-21.95,8.71-34.28,8.71-37.88,0-68.86-30.66-68.86-68.86s30.98-68.86,68.86-68.86ZM1173.29,186.67c-17.44,0-31.27,14.13-31.27,31.26s13.83,31.27,31.27,31.27,30.98-13.82,30.98-31.27-14.14-31.26-30.98-31.26Z"/>
    </g>
    <g>
      <path class="cls-1" d="M1350.23,101.86c25.56,0,48.71,10.23,65.56,27.06,7.82,7.82,7.82,21.05,0,28.86-3.92,3.9-9.33,6.02-14.44,6.02-5.42,0-10.53-2.11-14.73-6.02-8.72-9.03-21.95-15.03-36.39-15.03-28.27,0-51.12,23.15-51.12,52.01s22.85,50.82,51.12,50.82c14.44,0,26.47-5.41,37.29-15.33v-15.34h-37.29c-11.42,0-20.45-9.31-20.45-20.14,0-11.72,9.03-20.74,20.45-20.74h57.73c11.42,0,20.45,9.02,20.45,20.74v37.6c0,13.23-3,18.03-12.62,27.36-16.85,16.85-39.99,27.06-65.56,27.06-51.12,0-92.31-41.19-92.31-92.02s41.19-92.92,92.31-92.92Z"/>
      <path class="cls-1" d="M1535.96,101.86c51.42,0,93.21,41.2,93.23,92.62,0,51.12-41.81,92.31-93.23,92.31s-92.31-41.19-92.31-92.31,41.49-92.62,92.31-92.62ZM1535.96,142.76c-27.97,0-50.82,23.16-50.82,51.72s22.86,51.12,50.82,51.12,51.72-22.85,51.72-51.12-23.15-51.72-51.72-51.72Z"/>
    </g>
    <g>
      <path class="cls-2" d="M99.74,181.68l2.47,2.46c1.41,1.56,2.25,2.93,3.29,4.11.89,1.01,2.12,1.94,3.29,3.28l1.64,1.64c.34.32.69.64,1.03.98,4.12,4.05,11.05,2.62,13.34-2.68l28.22-65.33.72-.74,14.58,34.1c2.53,5.93,10.55,6.81,14.33,1.59,7.01-9.67,14.15-19.25,21.49-28.67,5.01-6.43,11.28-14.41,18.36-23.08,1.95-2.39,2.42-5.67,1.21-8.51l-35.34-82.54c-.15-.35-.32-.7-.52-1.03-4.29-7.23-11.16-12.36-19.15-14.99-.29-.1-.59-.18-.89-.24l-8.19-1.82c-.59-.13-1.2-.2-1.8-.2h-9.36c-.3,0-.6.01-.91.04-12.96,1.25-25.84,8.89-31.3,20.91l-52.03,121.6c-1.81,4.24.18,9.15,4.44,10.9,10.78,4.42,19.21,15.33,31.07,28.23Z"/>
      <path class="cls-2" d="M205.65,282.54l30.03,70.24c.09.22.2.43.31.64,4.74,8.65,13.36,15.57,22.95,17.99,1.94.49,3.97.66,5.91,1.1.5.11,1.01.19,1.52.19h4.66c.64,0,1.26-.17,1.88-.33.73-.19,1.64,0,2.39-.13,21.53-3.45,36.75-27.94,28.48-48.65l-47.64-111.26c-2.06-4.82-8.7-5.32-11.47-.86-4.4,7.11-8.8,14.23-13.25,21.3-9.17,13.51-17.32,28.87-25.53,44.17-.93,1.74-1.02,3.8-.25,5.61Z"/>
      <path class="cls-2" d="M3.05,321.25c-.12.27-.22.55-.3.83-.93,2.98-2.35,6.54-2.65,9.56-.25,2.47.1,5.26.05,7.84-.01.69,0,1.38.14,2.05,1.92,9.78,7.09,18.6,15.44,24.22,2.81,1.89,7.69,4.33,10.91,5.36,2.12.68,4.35.9,6.51,1.36.64.14,1.29.22,1.95.22h4.34c.68,0,1.37-.05,2.03-.23,1.19-.33,2.51-.4,3.74-.69,10.17-2.41,19.91-10.09,25.26-19.01.21-.35.4-.72.56-1.1l16.01-37.07c1.32-3.05.81-6.58-1.3-9.14-13.6-16.41-27.29-32.73-41.86-48.27-4.34-4.63-12.03-3.24-14.53,2.6l-26.3,61.45Z"/>
    </g>
    <path class="cls-1" d="M262.89,162.42c14.95-23.02,30.83-46.51,47.53-68.62,8.42-11.84,21.66-25.25,23.7-39.69,1.43-17.59-16.65-16.21-28.38-10.1-11.41,5.68-20.07,12.94-30.25,21.91-29.65,27.18-54.83,58.75-79.23,90.35-16.42,21.57-32.01,43.83-47.27,66.25-6.19,9.32-13.21,16.03-22.29,5.64-9.91-11.94-19.35-23.71-30.41-35.1-9.21-9.84-20.88-22.96-32.94-26.12-17.62-5.02-42.57,7.8-54.05,22.17-5.52,7.32-.76,14.64,4.96,20.12,7.91,7.6,16.4,15.19,23.91,23.2,24.57,24.85,45.23,53.28,69.13,78.68,15.34,15.24,36.58,18.27,54.6,5.77,10.61-7.1,18.77-17.89,25.59-28.58,7.73-12.12,14.66-25,21.58-37.64,16.3-30.36,35.51-58.81,53.67-88.01l.15-.23Z"/>
  </g>
</svg>