<?xml version="1.0" encoding="UTF-8"?>
<svg id="Camada_2" data-name="Camada 2" xmlns="http://www.w3.org/2000/svg" viewBox="0 0 361.03 384">
  <defs>
    <style>
      .cls-1 {
        fill: #d0d0cf;
      }

      .cls-2 {
        fill: #f4f6fa;
      }

      .cls-3 {
        fill: #3a3a3a;
      }

      .cls-4 {
        fill: #dc5563;
      }

      .cls-5 {
        fill: #e62e2d;
      }

      .cls-6 {
        fill: #e94c4a;
      }

      .cls-7 {
        fill: #dc5564;
      }
    </style>
  </defs>
  <g id="Camada_1-2" data-name="Camada 1">
    <g>
      <path class="cls-3" d="M94.01,0c12.54,4,10.31,15.02,10.5,25.5,2.5,5.7,2.63,14.6,0,20.25,2.59,1.58,1.84,10.64-1.5,11.25,1.72,5.04-6.99,8.23-11.43,8.32-4.62.09-13.6-3.06-11.82-8.32-3.23-.61-4.06-9.85-1.5-11.25-2.65-5.52-2.52-14.68,0-20.25.21-10.33-1.88-20.75,9.75-25.5h6Z"/>
      <path class="cls-3" d="M274.01,0c11.66,4.93,9.54,15.01,9.75,25.5,2.53,5.45,2.69,14.87,0,20.25,2.56,1.15,1.59,10.85-1.5,11.25,1.89,5.13-6.96,8.31-11.48,8.31s-13.48-3.15-11.77-8.31c-3.34-.61-4.09-9.67-1.5-11.25-2.63-5.65-2.5-14.55,0-20.25.19-10.48-2.04-21.5,10.5-25.5h6Z"/>
      <path class="cls-2" d="M342.26,115.5l1.5.71-.02,220.28c-2.21,12.56-10.85,22.15-23.98,22-98.08,1.19-196.27-.88-294.37,0-12.07-1.63-21.03-9.85-23.63-21.74-.69-73.7-.21-147.55,0-221.25,113.5-1.48,227-1.48,340.5,0Z"/>
      <path class="cls-1" d="M360.26,338.25c.77-74.19.18-148.55,0-222.75-5.74-.59-12.33-.62-18,0v220.87c-1.2,8.3-6.97,16.45-14.74,19.77-2.78,1.19-5.08,1.36-7.76,2.36-7.53-.66-15.08-1.26-22.65-1.28-90.54-.31-181.1-.31-271.64-.22-10.57-1.4-19.1-8.67-21.86-19.01l-1.85-1.24-1.49,1.56c-.75,17.87-1.49,43.13,21.74,45.69h317.25c8.21-2.36,15.44-7.13,18.88-15.24,3.55-8.37,2.02-21.22,2.12-30.51Z"/>
      <path class="cls-6" d="M78.26,25.5c-.13,6.56-.29,13.73,0,20.25.04.7-.21,1.23-.8,1.57-12.13-1.78-17.16.41-15.1,6.56,4.91,1.92,10.34,2.43,16.3,1.53l1.1,1.59c4.17,9.09,18.82,9.1,23.25,0l1.45-1.6,9.18.24c8.81,1,11.15-8.56,1.37-8.56l-9.36.26-1.13-1.59c.27-6.55.12-13.67,0-20.25h153c-.12,6.58-.27,13.7,0,20.25.04.7-.21,1.23-.8,1.57-12.13-1.78-17.16.41-15.1,6.56,4.91,1.92,10.34,2.43,16.3,1.53l1.1,1.59c4.42,9.08,19.21,9.08,23.25,0,.36-.86.84-1.39,1.45-1.6l9.18.24c8.81,1,11.15-8.56,1.37-8.56l-9.36.26-1.13-1.59c.31-6.49.13-13.72,0-20.25,12.73.15,25.52-.2,38.25,0,7.82.58,13.14,4.43,17.51,10.77,1.49,2.15,5.19,8.43,2.74,9.85l1.5.5v36.49l-1.5.88-.72,1.5H2.7l-.94-1.5c.15-22.52-6.47-54.11,23.63-58.49h52.87Z"/>
      <path class="cls-6" d="M1.76,95.25l.72-1.5h338.84l.94,1.5c.59.16,1.46.41,1.5.86.18,1.89.35,16.75,0,17.56-.24.57-.91.85-1.5,1.08.16-.59.41-1.44.87-1.5,1.83-.22,14.81-.33,16.03,0l1.09,1.5c0,.25,0,.5,0,.75H1.76c.02-6.74-.03-13.51,0-20.25Z"/>
      <path class="cls-5" d="M360.26,114.75h-18v-19.5H1.76c.02-3.74-.02-7.51,0-11.25h340.5v-37.88c0-1.23-2.76-6.97-3.6-8.4-3.94-6.67-9.68-9.48-16.65-12.23,11.14.17,19.72-1.79,28.89,5.98,5.4,4.57,8.77,10.44,9.38,17.62,1.73,20.05-.08,45.01-.03,65.65Z"/>
      <path class="cls-4" d="M78.26,45.75c.14,3.29.12,8.25,1.5,11.25-4.82-.67-18.28,2.39-19.49-4.16-1.94-10.46,11.87-6.33,17.99-7.09Z"/>
      <path class="cls-4" d="M103.01,57c1.58-3.24,1.36-7.75,1.5-11.25,6.13.77,19.93-3.37,17.99,7.09-1.21,6.55-14.67,3.49-19.49,4.16Z"/>
      <path class="cls-7" d="M282.26,57c1.2-2.7,1.35-8.17,1.5-11.25,6.13.77,19.93-3.37,17.99,7.09-1.21,6.55-14.67,3.49-19.49,4.16Z"/>
      <path class="cls-4" d="M257.51,45.75c.14,3.5-.08,8.01,1.5,11.25-4.82-.67-18.28,2.39-19.49-4.16-1.94-10.46,11.87-6.33,17.99-7.09Z"/>
      <path class="cls-3" d="M105.52,167.51c7.03-6.96,18.73-12.86,28.62-13.75,46.2-4.15,71.21,51.2,37.88,82.86,18.62,17.7,20.55,47.07,3.72,66.73-22.15,25.86-64.22,20.53-79.34-9.86-4.48-8.99-9.7-31.64,4.79-33.94,8.78-1.39,14.23,3.48,15.89,11.76,1.57,7.84,1.01,12.33,8.2,18.05,19.54,15.58,45.94-7.22,33.39-28.89-5.47-9.44-11.26-9.17-20.58-10.92-15.35-2.89-13.86-22.7-2.27-25.14,7.57-1.59,11.36.04,18.21-5.79,21.64-18.39-5.21-52.43-28.11-34.86-10.36,7.94-6.32,12.99-9.79,22.46-4.44,12.14-22.88,10.17-24.36-2.6-1.46-12.6,4.88-27.32,13.76-36.11Z"/>
      <path class="cls-3" d="M231.26,198c-3.26.79-4.36,4.23-7.49,5.63-12.36,5.53-23.61-8.69-15-20.26,3-4.04,24.15-25.18,27.98-27.52,8.26-5.05,17.6-1.15,19.84,8.2v145.9c-2.97,10.91-16.86,13.93-23.25,4.11-.46-.71-2.07-3.46-2.07-3.93v-112.12Z"/>
    </g>
  </g>
</svg>