<?xml version="1.0" encoding="UTF-8"?>
<svg id="Camada_2" data-name="Camada 2" xmlns="http://www.w3.org/2000/svg" viewBox="0 0 408.75 408.82">
  <defs>
    <style>
      .cls-1 {
        fill: #955252;
      }

      .cls-2 {
        fill: #e94c4f;
      }

      .cls-3 {
        fill: #fec703;
      }
    </style>
  </defs>
  <g id="Camada_1-2" data-name="Camada 1">
    <g>
      <path class="cls-2" d="M209.19,0c6.33,2.12,11.42,5.05,16.39,9.56l173.66,173.66c26.71,28.03-8.17,67.45-39.14,41.14l-1.67.59L204.57,70.69,49.74,224.79l-1.83-.43c-12.06,11.41-31.8,10.04-41.94-3.17-2.71-3.53-3.56-7.62-5.97-11.2v-11.18c.68-6.2,3.21-11.45,7.62-15.9,36.24-36.6,72.64-73.13,109.16-109.46,24.37-24.25,48.81-48.44,74.17-71.67l7.87-1.78h10.38Z"/>
      <path class="cls-3" d="M360.1,224.36v163c0,11.84-9.6,21.45-21.44,21.45-28.78,0-57.58-.02-86.35,0l-1.6-.56v-114.24l1.6-.98-.56,1.6h-95.08l-.98-1.6,1.6.56v114.24l-1.6.98c-29.82-.02-59.67,0-89.51,0-9.67,0-17.52-7.82-17.57-17.49l-.72-166.95L204.11,68.72l1.51.69,154.47,154.95Z"/>
      <path class="cls-1" d="M155.7,408.8v-115.77h96.61v115.77c-32.19.02-64.42.02-96.61,0Z"/>
      <path class="cls-1" d="M196.25,137.57c53.99-5.51,88.37,52.41,56.39,96.31-26.58,36.48-84.51,30.08-103.21-10.82-16.57-36.23,6.69-81.39,46.83-85.48Z"/>
      <path class="cls-1" d="M234.46,167.15c41.3,41.3-24.56,102.89-62.77,57.58-34.65-41.08,24.86-95.5,62.77-57.58Z"/>
    </g>
  </g>
</svg>