<?xml version="1.0" encoding="UTF-8"?>
<svg id="Camada_2" data-name="Camada 2" xmlns="http://www.w3.org/2000/svg" viewBox="0 0 409.05 406.7">
  <defs>
    <style>
      .cls-1 {
        fill: #d0d0cf;
      }

      .cls-2 {
        fill: #efcba2;
      }

      .cls-3 {
        fill: #f4f6fa;
      }

      .cls-4 {
        fill: #ef9b38;
      }

      .cls-5 {
        fill: #cd7911;
      }

      .cls-6 {
        fill: #3a3a3a;
      }

      .cls-7 {
        fill: #e62e2d;
      }

      .cls-8 {
        fill: #e94c4a;
      }

      .cls-9 {
        fill: #f3dad9;
      }

      .cls-10 {
        fill: #f3d9b7;
      }

      .cls-11 {
        fill: #fec703;
      }
    </style>
  </defs>
  <g id="Camada_1-2" data-name="Camada 1">
    <g>
      <path class="cls-6" d="M44.71,382.24c.76.36,1.08.97,1.16,1.78s-4.09,15.52-4.6,16.41l-2.15,1.77c-13.26,3.38-32.3,10.73-39.12-6.39v-11.98c3.78-11.87,6.87-23.98,10.38-35.93.93.29,1.85.61,2.72,1.04s1.67.86,2.34,1.46c10.03,8.95,19.24,19.2,28.13,29.18l1.14,2.66Z"/>
      <path class="cls-5" d="M235.54,137.92l.59,1.67c-55.2,55.47-110.41,110.94-165.63,166.43l-1.83-.42-1.64.63c-11.04-10.79-22.08-21.58-33.13-32.38l-.36-2.59c55.37-56.4,111.7-111.88,167.67-167.67l1.65-.61c11.04,11.04,22.09,22.09,33.14,33.14l-.45,1.8Z"/>
      <path class="cls-11" d="M305,207.39c-55.99,55.77-111.13,112.45-167.67,167.67-13.03-9.82-24.71-21.97-34.33-35.13l-.59-1.67c55.47-55.2,110.94-110.41,166.43-165.63l1.83.43,1.65-.61c11.04,11.04,22.09,22.09,33.14,33.14l-.45,1.8Z"/>
      <path class="cls-8" d="M395.23,31.73c7.63,11,12.67,22.67,13.61,36.3,2.71,39.57-20.69,57.5-45.54,82.67-.96.71-1.49.71-1.6,0l-1.52.74c-22.53-22.53-45.06-45.06-67.59-67.59l.44-1.81c-.71-.23-.7-.49,0-.8l.87-3.15c25.62-30.29,59.89-57.66,101.33-46.35Z"/>
      <path class="cls-7" d="M395.23,31.73c-3,1.75-7.49-.58-10.79-.79-12.9-.81-27.09,1.55-39,6.49-21.66,8.99-36.27,27.62-52.41,43.8l-1.65.61c-11.31-11.31-22.62-22.62-33.93-33.93l.45-1.81c13.17-13.01,29.62-32.05,46.34-39.49,32.96-14.68,70.6-4.29,90.99,25.12Z"/>
      <path class="cls-10" d="M68.67,306.39c13.02,9.18,24.95,20.65,34.33,33.53,11.56,11.56,22.92,23.42,34.33,35.13-26.03,7.3-52.13,14.56-78.25,21.56-5.83-2.65-11.15-8.45-13.57-14.37-.8-.23-1.16-1.05-1.12-1.87l21.04-73.38c.7-2.09,2.05-2.5,3.24-.6Z"/>
      <path class="cls-1" d="M333.75,179.44c-9.44,9.4-19.52,18.76-28.74,27.95l-34.33-34.33c-13.16-9.65-24.88-21.84-34.33-35.13-.45-.42-1.04-1.2-.79-1.49,3.09-3.56,24.25-27.38,26.13-27.67l1.81.41c.23-.7.49-.69.8,0l1.52-.73c22.79,23.06,45.59,46.12,68.39,69.18l-.45,1.81Z"/>
      <path class="cls-2" d="M68.67,305.59c.7.24.69.51,0,.8-.12.1-1.38-.35-1.58.57l-21.58,75.28c-.23.69-.49.68-.8,0-11.43-11.44-22.32-23.48-34.33-34.33,7.52-25.58,15.39-51.14,23.15-76.65l35.13,34.33Z"/>
      <g>
        <path class="cls-3" d="M293.03,82.03l68.67,68.67c-.29,1-.56,1.8-.8,2.4-8.84,8.94-18.24,17.47-27.15,26.35l-69.46-70.26c-.43-.45-.97-1.26-.71-1.53,3.28-3.38,25.77-25.95,27.67-26.13l1.78.51Z"/>
        <path class="cls-3" d="M293.03,81.23c.13.13-.13.67,0,.8l-28.74,27.15h-.8l-1.66.58c-10.78-11.03-21.56-22.07-32.34-33.11l.47-1.81c9.45-9.4,18.46-19.38,27.95-28.74l35.13,35.13Z"/>
      </g>
      <path class="cls-1" d="M263.49,109.18l-27.15,28.74c-.23.7-.49.69-.8,0l-34.33-34.33c9.59-9.56,19.14-19.19,28.74-28.74l33.53,34.33Z"/>
      <path class="cls-6" d="M59.08,396.62c-6.66,1.78-13.29,3.89-19.96,5.59l5.59-19.96c.13.13.67-.13.8,0,4.62,4.63,9.1,9.59,13.57,14.37Z"/>
      <path class="cls-9" d="M363.29,150.7c-.8.81-1.6,1.6-2.4,2.4l-.78-.4,1.58-2h1.6Z"/>
      <path class="cls-4" d="M270.67,173.05l-167.67,166.87c-11.29-11.29-22.89-22.39-34.33-33.53.1-.08-.06-.54,0-.8l166.87-167.67h.8c11.41,11.71,22.77,23.57,34.33,35.13Z"/>
    </g>
  </g>
</svg>