<?xml version="1.0" encoding="UTF-8"?>
<svg id="Camada_2" data-name="Camada 2" xmlns="http://www.w3.org/2000/svg" viewBox="0 0 295.5 372.58">
  <defs>
    <style>
      .cls-1 {
        fill: #3b3b3a;
      }

      .cls-2 {
        fill: #f4f6fa;
      }

      .cls-3 {
        fill: #c44048;
      }

      .cls-4 {
        fill: #3a3a3a;
      }

      .cls-5 {
        fill: #e5ecf3;
      }

      .cls-6 {
        fill: #e94c4a;
      }
    </style>
  </defs>
  <g id="Camada_1-2" data-name="Camada 1">
    <g>
      <polygon class="cls-5" points="295.5 370.5 295.5 313.88 16.04 321.75 .29 345.09 10.41 366.28 78.12 372.58 295.5 370.5"/>
      <path class="cls-6" d="M19.03,320.03V14.81c0-.95.77-1.72,1.71-1.72l246.7-1.65c15.47-.1,28.07,12.41,28.07,27.88v278.86c0,.95-.77,1.72-1.71,1.72l-273.04,1.86h0c-.95,0-1.72-.77-1.72-1.72Z"/>
      <path class="cls-1" d="M27.75,0c-.71,1.2-3.74,1.23-4.5,0h4.5Z"/>
      <path class="cls-3" d="M23.31,11.99v305.19c-9.18.15-16.07,22.7-23.02,27.91L0,39.56c0-2.42,1.55-8.19,2.52-10.69,3.12-8.09,12.16-15.66,20.79-16.88Z"/>
      <path class="cls-3" d="M51.75,329.85c-.11-2.31-2.03-4.58-4.29-5.09-3.54-.79-17.53-.56-21.58-.15-17.47,1.77-24.47,24.15-10.89,35.61,1.62,1.36,7.62,4.86,9.38,4.86h271.12v7.5H24.38c-12.61,0-23.97-15.54-24.09-27.49s11.06-27.98,23.34-27.98h271.88v7.5H67.12c-1.6,0-4.04,3.45-4.12,5.25h-11.25Z"/>
      <path class="cls-4" d="M70.77,214.89c-4.49-4.49-7.94-11.78-8.5-18.11-2.18-24.37,1.63-51.78-.04-76.48,2.07-17.35,14.31-26.28,31.12-27.37,40.75-2.63,84.27,2.06,125.31,0,16.41,1.04,27.56,8.63,31.1,25.14-1.91,25.65,2.55,55-.01,80.21-1.45,14.29-14.44,24.09-28.09,25.15-42.22,3.29-88.64-2.54-131.3,0-6.97-.55-14.63-3.59-19.58-8.54Z"/>
      <path class="cls-2" d="M90.58,104.41c41.84,2,87.4-3.38,128.82-.24,9.45.72,18.2,5.82,19.13,16.12,2.18,24.31-1.69,51.84-.03,76.5-1.45,8.82-7.95,14.58-16.85,15.4H91.1c-8.89-.46-16.63-7.2-17.6-16.14-2.56-23.59,1.93-51.66,0-75.72,1.75-9.35,7.7-14.78,17.09-15.91Z"/>
      <path class="cls-4" d="M99.21,147.47c-3.28-3.31-1.02-9.58,3.9-9.55l106.55-.02c7.69,2.17,5.76,11.7-2.26,11.31-33.1-2.31-70.19,2.97-102.82.01-1.58-.14-4.28-.65-5.38-1.75Z"/>
      <path class="cls-4" d="M212.78,168.9c3.36,2.71,1.69,9.82-3.14,9.52l-107.3.04c-6.19-.81-6.31-9.58,0-10.57h106.57c1.36.06,2.76.11,3.88,1.01Z"/>
    </g>
  </g>
</svg>