<?xml version="1.0" encoding="UTF-8"?>
<svg id="Camada_2" data-name="Camada 2" xmlns="http://www.w3.org/2000/svg" viewBox="0 0 1242.82 232.45">
  <defs>
    <style>
      .cls-1 {
        fill: #28c4ff;
      }
    </style>
  </defs>
  <g id="Camada_1-2" data-name="Camada 1">
    <g>
      <path d="M63.52,12.33C67.13,3.61,75.55,0,84.27,0s16.85,3.61,20.14,12.32l61.64,144.04c4.82,10.52,0,22.55-10.53,26.75-2.7,1.52-5.11,1.8-8.11,1.8-7.82,0-15.34-4.51-18.65-12.32l-8.41-19.54H47.87l-8.42,19.54c-3.3,7.82-10.82,12.32-18.64,12.32-2.69,0-5.71-.29-8.41-1.8-10.52-4.2-15.34-16.23-10.52-26.75L63.52,12.33ZM84.27,68.56l-18.95,43.3h36.99l-18.04-43.3Z"/>
      <path d="M249.34,47.21c37.58,0,68.26,30.68,68.26,68.86s-30.68,68.86-68.26,68.86c-11.73,0-22.26-2.1-31.58-6.91v35.48c0,10.52-8.42,18.95-18.64,18.95s-18.95-8.42-18.95-18.95v-97.44c0-38.18,30.68-68.86,69.17-68.86ZM249.34,84.8c-17.44,0-31.57,14.13-31.58,31.26,0,17.44,14.13,31.27,31.58,31.27s30.97-13.82,30.97-31.27-14.13-31.26-30.97-31.26Z"/>
      <path d="M397.91,47.21c10.23,0,18.65,8.42,18.65,18.95s-8.41,18.65-18.64,18.65c-14.73,0-25.86,11.42-25.86,25.85v56.53c0,10.52-8.72,18.95-18.95,18.95s-18.65-8.42-18.65-18.95v-56.53c0-34.88,28.56-63.45,63.45-63.45Z"/>
      <path d="M491.29,47.21c37.89,0,68.56,30.68,68.56,68.86s-30.67,68.86-68.56,68.86-68.86-30.66-68.86-68.86,30.67-68.86,68.86-68.86ZM491.29,84.8c-17.44,0-31.57,14.13-31.57,31.26s14.13,31.27,31.57,31.27,30.98-13.82,30.98-31.27-14.14-31.26-30.98-31.26Z"/>
      <path d="M570.46,74.57c-4.51-9.62-.9-20.75,8.71-25.26,2.41-1.21,5.41-2.11,8.72-2.11,6.62,0,12.93,3.91,16.24,10.23l34.88,68.56,34.88-68.56c3.61-6.31,9.92-10.23,16.83-10.23,2.72,0,5.72.9,8.72,2.11,9.03,4.51,12.94,15.63,8.13,25.26l-51.71,100.74c-3.31,6.61-9.92,10.23-16.83,10.23s-13.84-3.62-17.14-10.23l-51.42-100.74Z"/>
      <path d="M786.92,47.21c37.89,0,68.56,30.68,68.56,68.86v50.22c0,10.23-7.82,18.64-18.95,18.64-6.62,0-12.03-3.3-15.34-8.71-10.52,5.4-21.95,8.71-34.28,8.71-37.88,0-68.86-30.66-68.86-68.86s30.98-68.86,68.86-68.86ZM786.92,84.8c-17.44,0-31.27,14.13-31.27,31.26s13.83,31.27,31.27,31.27,30.98-13.82,30.98-31.27-14.14-31.26-30.98-31.26Z"/>
    </g>
    <g>
      <path class="cls-1" d="M963.87,0c25.56,0,48.71,10.23,65.56,27.06,7.82,7.82,7.82,21.05,0,28.86-3.92,3.9-9.33,6.02-14.44,6.02-5.42,0-10.53-2.11-14.73-6.02-8.72-9.03-21.95-15.03-36.39-15.03-28.27,0-51.12,23.15-51.12,52.01s22.85,50.82,51.12,50.82c14.44,0,26.47-5.41,37.29-15.33v-15.34h-37.29c-11.42,0-20.45-9.31-20.45-20.14,0-11.72,9.03-20.74,20.45-20.74h57.73c11.42,0,20.45,9.02,20.45,20.74v37.6c0,13.23-3,18.03-12.62,27.36-16.85,16.85-39.99,27.06-65.56,27.06-51.12,0-92.31-41.19-92.31-92.02S912.75,0,963.87,0Z"/>
      <path class="cls-1" d="M1149.59,0c51.42,0,93.21,41.2,93.23,92.62,0,51.12-41.81,92.31-93.23,92.31s-92.31-41.19-92.31-92.31S1098.77,0,1149.59,0ZM1149.59,40.9c-27.97,0-50.82,23.16-50.82,51.72s22.86,51.12,50.82,51.12,51.72-22.85,51.72-51.12-23.15-51.72-51.72-51.72Z"/>
    </g>
  </g>
</svg>