<?xml version="1.0" encoding="UTF-8"?>
<svg id="Camada_2" data-name="Camada 2" xmlns="http://www.w3.org/2000/svg" viewBox="0 0 334.2 372.7">
  <defs>
    <style>
      .cls-1 {
        fill: #28c4ff;
      }

      .cls-2 {
        fill: #28a0ff;
      }
    </style>
  </defs>
  <g id="Camada_1-2" data-name="Camada 1">
    <g>
      <path class="cls-2" d="M99.74,181.68l2.47,2.46c1.41,1.56,2.25,2.93,3.29,4.11.89,1.01,2.12,1.94,3.29,3.28l1.64,1.64c.34.32.69.64,1.03.98,4.12,4.05,11.05,2.62,13.34-2.68l28.22-65.33.72-.74,14.58,34.1c2.53,5.93,10.55,6.81,14.33,1.59,7.01-9.67,14.15-19.25,21.49-28.67,5.01-6.43,11.28-14.41,18.36-23.08,1.95-2.39,2.42-5.67,1.21-8.51l-35.34-82.54c-.15-.35-.32-.7-.52-1.03-4.29-7.23-11.16-12.36-19.15-14.99-.29-.1-.59-.18-.89-.24l-8.19-1.82c-.59-.13-1.2-.2-1.8-.2h-9.36c-.3,0-.6.01-.91.04-12.96,1.25-25.84,8.89-31.3,20.91l-52.03,121.6c-1.81,4.24.18,9.15,4.44,10.9,10.78,4.42,19.21,15.33,31.07,28.23Z"/>
      <path class="cls-2" d="M205.65,282.54l30.03,70.24c.09.22.2.43.31.64,4.74,8.65,13.36,15.57,22.95,17.99,1.94.49,3.97.66,5.91,1.1.5.11,1.01.19,1.52.19h4.66c.64,0,1.26-.17,1.88-.33.73-.19,1.64,0,2.39-.13,21.53-3.45,36.75-27.94,28.48-48.65l-47.64-111.26c-2.06-4.82-8.7-5.32-11.47-.86-4.4,7.11-8.8,14.23-13.25,21.3-9.17,13.51-17.32,28.87-25.53,44.17-.93,1.74-1.02,3.8-.25,5.61Z"/>
      <path class="cls-2" d="M3.05,321.25c-.12.27-.22.55-.3.83-.93,2.98-2.35,6.54-2.65,9.56-.25,2.47.1,5.26.05,7.84-.01.69,0,1.38.14,2.05,1.92,9.78,7.09,18.6,15.44,24.22,2.81,1.89,7.69,4.33,10.91,5.36,2.12.68,4.35.9,6.51,1.36.64.14,1.29.22,1.95.22h4.34c.68,0,1.37-.05,2.03-.23,1.19-.33,2.51-.4,3.74-.69,10.17-2.41,19.91-10.09,25.26-19.01.21-.35.4-.72.56-1.1l16.01-37.07c1.32-3.05.81-6.58-1.3-9.14-13.6-16.41-27.29-32.73-41.86-48.27-4.34-4.63-12.03-3.24-14.53,2.6l-26.3,61.45Z"/>
    </g>
    <path class="cls-1" d="M262.89,162.42c14.95-23.02,30.83-46.51,47.53-68.62,8.42-11.84,21.66-25.25,23.7-39.69,1.43-17.59-16.65-16.21-28.38-10.1-11.41,5.68-20.07,12.94-30.25,21.91-29.65,27.18-54.83,58.75-79.23,90.35-16.42,21.57-32.01,43.83-47.27,66.25-6.19,9.32-13.21,16.03-22.29,5.64-9.91-11.94-19.35-23.71-30.41-35.1-9.21-9.84-20.88-22.96-32.94-26.12-17.62-5.02-42.57,7.8-54.05,22.17-5.52,7.32-.76,14.64,4.96,20.12,7.91,7.6,16.4,15.19,23.91,23.2,24.57,24.85,45.23,53.28,69.13,78.68,15.34,15.24,36.58,18.27,54.6,5.77,10.61-7.1,18.77-17.89,25.59-28.58,7.73-12.12,14.66-25,21.58-37.64,16.3-30.36,35.51-58.81,53.67-88.01l.15-.23Z"/>
  </g>
</svg>