<?xml version="1.0" encoding="UTF-8"?>
<svg id="Camada_2" data-name="Camada 2" xmlns="http://www.w3.org/2000/svg" viewBox="0 0 511.8 510.85">
  <defs>
    <style>
      .cls-1 {
        fill: #f1906d;
      }

      .cls-2 {
        fill: #c44048;
      }

      .cls-3 {
        fill: #facb54;
      }

      .cls-4 {
        fill: #cd7911;
      }

      .cls-5 {
        fill: #fddd96;
      }

      .cls-6 {
        fill: #f0955a;
      }

      .cls-7 {
        fill: #fec604;
      }

      .cls-8 {
        fill: #e94c4a;
      }

      .cls-9 {
        fill: #fec703;
      }
    </style>
  </defs>
  <g id="Camada_1-2" data-name="Camada 1">
    <g>
      <path class="cls-7" d="M86.63,251.35l-.06,4.21c-8.97,29.5-16.27,59.54-21.99,89.83l-1.9,3.76c.25.91.03,2.59-.45,3.34-.07.1.39-2.25,1.45-1.35.58-1.2,1.2-2.38,1.95-3.47s1.48-2.12,2.41-2.95c14.93-13.31,31.93-25.51,48.89-35.97l2.32,1.16,32.96,50.32c7.03-30.43,15.39-60.53,25.08-90.28,2.01-7.78,5.39-14.32,10.15-19.62l2.13-2h24.36l1.46,2c.78,86.49.77,172.99,0,259.48-52.9.77-106.13,1.1-159.69,1h-2.99c-10.53-.87-16.22-9.29-16.95-19.39-.34-80.7.33-161.4,1.98-242.09l1-1.96c15.59.64,31.19,1.27,46.79,1.91l1.11,2.04Z"/>
      <path class="cls-7" d="M458.9,510.84h-2.99c-53.02.1-105.92-.23-158.69-1-.77-86.49-.78-172.99,0-259.48.09-.78.35-1.95.9-2,3.04-.25,23.27-.54,24.91,0l2.13,2,2.25,1.81c14.5,34.73,25.4,70.9,32.7,108.52l33.09-50.52c.7-.51,2.21-1.5,2.42-1.42,1.39.53,2.72,1.2,4.02,1.93,14.2,8.03,32.54,23.02,44.93,34.07.93.83,1.68,1.87,2.41,2.95s1.36,2.27,1.95,3.47c.78-.13,1.11-.79,1-2l-1.9-3.76c-5.72-30.29-13.03-60.34-21.99-89.83l-.06-4.21c.05-.79.28-1.98.84-2.03,12.37-1.12,26.87-1.5,39.36-1.61,4.3-.91,7.2-.37,8.7,1.64,1.65,80.69,2.32,161.39,1.98,242.09-.81,10.71-6.79,18.9-17.95,19.39Z"/>
      <path class="cls-9" d="M511.8,117.62v85.83c-1.13,15.04-24.28,14.5-35.48,12.97l-1.45-1.99c-20.76,3.39-43.06,3.02-63.88,0-1.8-1.72-3.62-3.51-4.78-5.73-4.95-9.5-9.86-19.25-14.51-28.9-1.09-2.26-1.39-4.81-1.66-7.28l-2.47-1.74c-7.38-12.32-15.02-24.53-22.92-36.62l-1.56-5.55,2.85-2.84c25.79-5.94,51.18-13.18,76.16-21.7l3.83.59c1.04,1.65,3.79.99,5.47,1.02,16.56.2,33.14-.38,49.69.21,6.01,1.73,8.6,6.3,10.71,11.75Z"/>
      <path class="cls-1" d="M216.38,250.35l2,.95v257.3l-2,1.24.93-2h77.71l1.21,2-2-.95V251.59l2-1.24c.28-.87.62-.86,1,0-.02,86.48.01,173.01,0,259.48.87.28.86.62,0,1h-81.84c-.87-.28-.86-.62,0-1-.01-86.48.02-173.01,0-259.48.28-.87.62-.86,1,0Z"/>
      <polygon class="cls-5" points="215.38 509.84 215.38 510.84 55.69 510.84 215.38 509.84"/>
      <polygon class="cls-5" points="455.91 510.84 297.22 510.84 297.22 509.84 455.91 510.84"/>
      <path class="cls-8" d="M122.56,172.51c28.67,7.04,57.76,15.18,87.26,24.43l3.56,2.52c1.07,3.92-2.89,13.28-6.99,13.97,0,1.04-.03,2.07-.2,3.09-.84,5.09-11.17,23.6-14.63,29.57-1.01,1.74-2.55,3.07-4.14,4.27-17.67,39.84-22.74,70.09-32.92,111.3-.32,1.31.06,2.54-1.51,3.46l-35.93-54.85c-18.53,12.65-36.59,26.04-53.4,40.9-1.15.95-1.48.29-1-2,4.74-33.03,12.83-66.35,23.95-97.81l.02-3.99c7.98-25.1,19.51-49.55,32.95-72.18l2.96-2.67Z"/>
      <path class="cls-4" d="M149.51,128.6l-1.56,5.55c-7.89,12.09-15.53,24.3-22.92,36.62l-2.47,1.74c-13.72,25.21-26.34,51.73-35.93,78.84l-48.9-2v-34.93c15.12-2.3,30.39-2.86,45.83-1.69,12.17-30.18,28.42-59.18,47.57-85.47l3.41-2.66c5.42-1.49,11.05-.05,14.97,3.99Z"/>
      <path class="cls-4" d="M215.38,214.42c2.49,11.98,2.48,23.95,0,35.93h-27.95c5.73-12.92,12.12-24.7,18.96-36.93,1.97-1.64,7.87-1.62,8.98,1Z"/>
      <path class="cls-6" d="M63.68,351.15c-.55.49-.79,2.08-1.99,2-.75-1.66.88-3.24.99-3.99l1,2Z"/>
      <path class="cls-8" d="M411,214.42c.74.42,1.46.88,2.08,1.43,2.73,2.42,13.73,29.43,13.42,33.03-.07.83-.28,1.65-.53,2.47,11.13,31.45,19.22,64.77,23.95,97.81.49,1.82.15,2.49-1,2-16.81-14.86-34.87-28.25-53.4-40.9l-35.93,54.85c-1.57-.92-1.19-2.14-1.51-3.46-10.19-41.21-15.25-71.46-32.92-111.3-5.67-7.38-10.32-15.71-13.96-24.97-5.21-8.4-9.21-17.04-11.99-25.92l3.75-2.57c29.46-9.24,58.48-17.36,87.07-24.38,7.47,13.71,14.66,27.62,20.96,41.92Z"/>
      <path class="cls-4" d="M474.87,214.42v34.93l-48.9,2c-4.25-12.01-9.81-25.23-14.97-36.93,21.27-.19,42.6.25,63.88,0Z"/>
      <path class="cls-4" d="M299.22,199.45c9.73,16.01,18.35,33.76,25.95,50.9h-27.95c-2.48-11.98-2.49-23.95,0-35.93l-1.33-.65c.7-4.68,1.11-9.69,1.22-15.01l1.11-.31c1.49-1.22,2.05-.66,1,1Z"/>
      <path class="cls-6" d="M449.92,349.16c.11.75,1.74,2.33.99,3.99-1.2.08-1.43-1.51-1.99-2l1-2Z"/>
      <path class="cls-2" d="M149.51,128.6c1.26-.19,2.52-.34,3.78-.35s2.46,0,3.61.27c17.35,4.23,34.67,8.91,51.73,14.08.13-14.14-.09-28.2-.67-42.2-19.47-11.81-41.36-22.8-63.58-29.79-12.54-3.95-31.76-9.44-43.92-3.07-16.43,19.79-37.25,1.92-15.52-14.76,30.24-23.22,92.97,8.31,121.39,23.45.82.44,1.5,1.17,2.19,1.93s1.3,1.63,1.87,2.52c-2.94-2.78-3.35-13.34,0-15.47-3.67-1.58,2.56-11.73,5.99-10.48,3.04-3.28,8.11-6.29,12.56-6.9,11.73-1.6,39.51-1.05,51.85-.13,6.23.47,11.14,2.4,15.43,7.03,3.32-1.46,9.39,8.43,5.99,10.48,3.37,1.49,2.92,12.21,0,14.47l3.65-3.93c28.49-15.47,92.29-46.46,122.22-22.01,18.85,15.4-.5,34.02-14.24,14.77-15.79-9.76-50.25,2.08-66.07,9.44-14.55,6.76-29.35,13.73-43.38,21.86l-1.11,43.2c17.29-5.7,35.07-10.28,52.78-14.6,1.09-.27,2.25-.26,3.43-.23s2.4.2,3.6.4c10.31,13.8,18.73,28.82,26.95,43.91.57,2.68-1.34,1.96-2.98,2.46-29.06,8.83-58.9,15.27-87.84,24.49-.21-.34-.76-.61-1-1-1,.64-1.67-.03-2-2l-2.77-1.9c-7.44-10.56-14.88-21.16-22.3-31.81h-29.44c-7.28,9.99-14.8,20.59-22.57,31.81l-2.77,1.9c-.33,1.97-1,2.63-2,2,.19,1.26.14,1.69-1,1-28.93-9.24-58.8-15.62-87.84-24.49-1.64-.5-3.55.22-2.98-2.46,8.22-15.09,16.64-30.11,26.95-43.91Z"/>
      <path class="cls-8" d="M445.93,104.64c-22.66,9.57-58.07,17.15-82.84,23.95-20.6,5.66-41.56,10.25-61.87,16.97l1.2-46.7c12.72-7.16,25.66-14.43,39.04-20.34,17.88-7.89,57.72-24.02,74.89-10.67,4.19,3.26,4.64,8.95,12.67,6.4,8.71-2.77,4.32-12.86-.56-17.51-20.27-19.34-60.55-6.51-83.31,2.5-14.75,5.84-28.58,13.81-42.93,20.45v-14.47c0-1.86-4.42-8.79-5.99-10.48L404.03,3.36c40.48-14.77,52.37,22.08,61.9,52.84,6.55,21.15,1.24,39.47-20,48.44Z"/>
      <path class="cls-8" d="M216.38,54.74c-1.56,1.69-5.99,8.62-5.99,10.48v15.47c-12.51-6.72-25.14-13.61-38.25-19.13-24.48-10.32-73.64-27.45-92.49-.33-4.28,6.17-1.26,13.88,6.47,13.54,5.3-.23,9.96-8.62,17.27-10.76,22.48-6.6,66.55,13.45,87.07,24.15,2.91,1.52,17.99,9.51,19.02,10.92,3.49,4.77-1.38,38.46,1.91,46.49-20.32-6.67-41.27-11.3-61.87-16.97-4.96-1.36-10.04-2.62-14.97-3.99l-3.63,1.07c-21.01-4.97-41.71-10.97-62.09-18l-2.15-3.03c-21.24-8.97-26.55-27.29-20-48.44C56.2,25.44,68.09-11.41,108.57,3.36l107.81,51.38Z"/>
      <path class="cls-9" d="M134.54,124.6c-19.31,28.29-36.5,58.15-50.06,89.66-15.56.17-31.19.35-46.75.16-14.32-.17-35.22,4.4-36.97-15.43-2.3-26.09,1.44-55.98.47-82.45,1.62-4.97,5.7-10.01,11.11-10.84,12.9-1.99,34.78.1,48.85-.05,1.69-.02,4.44.64,5.47-1.02,18.73,7.91,47.55,14.3,67.87,19.96Z"/>
      <path class="cls-8" d="M296.22,250.35v259.48h-79.84V250.35l.93-2h77.71l1.21,2Z"/>
      <path class="cls-8" d="M297.22,214.42c-.02,11.96,0,23.97,0,35.93h-81.84c0-11.96.02-23.97,0-35.93,27.25-.75,54.58-.87,81.84,0Z"/>
      <path class="cls-3" d="M215.38,214.42c-2.81-.02-7.02.81-8.98-1,2.36-4.22,4.56-9.99,6.99-13.97.21-.34.76-.61,1-1l1.11.31c.11,5.33.52,10.33,1.22,15.01l-1.33.65Z"/>
      <path class="cls-8" d="M216.38,196.46c2.98-.29,2.4,14.68,2,15.57-.34.74-1.21,1.1-2,1.4.08-.79.37-1.98.93-2,25.27-.64,52.43-.64,77.71,0l1.21,2c-2.97.28-2.41-14.84-2-15.57s1.2-1.14,2-1.4c.22.35,1.33.91,2,2-1.85,4.46-.99,10.9-1,15.97-27.26-.12-54.58.17-81.84,0-.01-5.07.85-11.51-1-15.97.67-1.09,1.78-1.65,2-2Z"/>
      <path class="cls-8" d="M216.38,196.46c7.68-12.21,15.37-24.25,24.16-35.71h31.52c8.79,11.47,16.49,23.49,24.16,35.71v16.97h-79.84v-16.97Z"/>
    </g>
  </g>
</svg>