<?xml version="1.0" encoding="UTF-8"?>
<svg id="Camada_2" data-name="Camada 2" xmlns="http://www.w3.org/2000/svg" viewBox="0 0 356.13 360.98">
  <defs>
    <style>
      .cls-1 {
        fill: #009946;
      }

      .cls-2 {
        fill: #f8c300;
      }

      .cls-3 {
        fill: #cb92c1;
      }

      .cls-4 {
        fill: #be62a3;
      }

      .cls-5 {
        fill: #fff;
      }

      .cls-6 {
        fill: #4d79a2;
      }

      .cls-7 {
        fill: #4e79a3;
      }

      .cls-8 {
        fill: #ebedf3;
      }

      .cls-9 {
        fill: #009ee0;
      }

      .cls-10 {
        fill: #009cde;
      }

      .cls-11 {
        fill: #4fbded;
      }

      .cls-12 {
        fill: #3eb17c;
      }

      .cls-13 {
        fill: #4d78a2;
      }

      .cls-14 {
        fill: #fdd507;
      }

      .cls-15 {
        fill: #d5dce8;
      }
    </style>
  </defs>
  <g id="Camada_1-2" data-name="Camada 1">
    <g>
      <path class="cls-15" d="M260.52.16c8.94-1.65,22.46,9.73,22.46,18.34v133.61h34.43c1.16,1.81-.75,2.12-2.44,2.3-21.68-1.06-43.25-.94-64.69.34-2.67,1.48-5.25,2.35-7.72,2.6l-2.3,1.5-54.55.02c-6.17.58-7.78,8.36-1.61,10.45h53.07s.9,1.51.9,1.51l1.61.75c1.2,5.99,5.99,11.11,11.93,12.58l.68,1.64c2.36.66,2.3,8.14,0,8.98,2.24,24.12,2.17,48.49,0,72.61-5.66-.15-11.57-.36-17.71-.63-16.68.78-33.36.98-50.03.61-5.94.06-4.84,9.71-1.3,9.77,22.18.41,44.81.19,66.79-.19l1.49.92,1.5,1.88-.08,21.53c.13,19.56,3.88,41.4,22.81,51.38l1.22,2.31c-4.67,2.44-8.99,5.88-14.57,6.01l-242.54-.04c-11.39-1.54-19.73-10.94-19.85-22.45l1.17-3.94,30.94-39.67v-35.58c.09-1.69.61-2.46,2.32-1.64l1.19,2.87c.07,17.86.16,35.71.28,53.54l-1.48,2.73,1.4,1.1c-.19,6.42,6.04,9.92,11.87,10.22,18.39.13,36.79.1,55.19-.09,5.52-.48,10.16-3.66,10.89-9.39.11-19.25.19-38.49.24-57.73-.43-6.63-3.2-10.32-9.86-11.37l-.88-1.6-2.55,1.26-27.84.21-2.55-1.47-.9-1.3,17.34-23.44-41.76-.69-.87-1.51c4.27-1.91,9.1-2.51,14.49-1.8,15.25.62,30.41,1.02,45.66.34,8.47-.38,9.98-9.56,9.94-16.42l-.47-14.12,1.5-.93,1.25-4.05,68.27-87.97-143.45-.8-.92-1.5.53-1.5,169.67.04c11.23-6.95-1.15-12.82-9.53-10.52l-1.23-1.5c-.44-.39-1.05-1.03-.84-1.41.99-1.84,9.28-14.02,10.34-14.87l2.47-.94,2.05-1.49c10.75.52,21.48.59,32.21.21,11.85-1.27,7.04-13.32-3.61-11.08l-18.6.38-.81-1.5-.77-1.46c11.79-15.57,23.59-31.14,35.4-46.73l2.8-1.22Z"/>
      <path class="cls-8" d="M260.52.16l-37.43,49.4-11.27.93c-44.99.34-89.98.69-134.97,1.06-4.4,3.11-3.34,9.16,2.21,10.01l108.64.04c8.07.17,16.12.65,24.16,1.44l-11.98,17.22c-4.03.66-8.09,1.26-12.19,1.29-48.68.32-97.39.29-146.07.18-6.13.69-7.9,8.05-1.64,10.32l.46,1.68,147.46.76-72.61,93.56c-1.53-12.88-2.07-25.85-1.63-38.91-1.72-4.77-4.97-7.34-10.1-7.43l-.99-1.57-2.32.88c-18.52.6-37.07.8-55.65.61-6.73,1.26-8.86,5.5-9.07,12.18-.38,12.18.03,24.31.72,36.49.9,6.53.3,12.51-1.79,17.95l1.31,1.02c-.53,4.75,3.23,9.28,7.84,10.15l.58,1.56,45.66.75-19.46,26.19-1.31,1.5-17.32-.37c-6.8-.31-13.56,1.04-15.71,8.18l-1.6.43c-1.24.78-.75,2.84-.76,4.11-.14,11.17.28,22.35-.17,33.51L.03,338.5l-.03-316.28C.98,9.71,8.74,1.4,21.33.13l239.18.03Z"/>
      <path class="cls-11" d="M252.28,194.78c0-.58.15-1.49.52-1.5,24.75-.49,50.91-.48,75.68,0l.91,1.5,1.5.52v122.44l-1.5.92c.37.07.72.16.99.36,2.24,1.66-5.11,18.04-6.43,20.08-6.97,10.76-18.85,19.86-31.98,20.36-4.42-.41-10.96-2.54-14.97-4.49-29.44-14.35-25.3-49.47-25.45-77.1-2.46-1.22-1.42-9.08.75-10.48-.09-24.19,0-48.42,0-72.61Z"/>
      <path class="cls-10" d="M341.36,152.86c19.62,1.61,19.53,29.45.71,33.43l.07,130.91c-2.14,26.33-23.67,44.7-50.19,42.26,14.81-3.74,28.23-13.14,34.05-27.71,1.15-2.89,3.38-10.27,3.38-13.09v-123.88h-77.1v-8.98c.42-1.42,1.07-1.43,1.5,0,22.61.8,44.84.84,66.7.1l-.08-.85.68-1.86c13.46-5.9,12.25-23.63-1.25-28.55-.22-.67-.63-2.02-.4-2.16,1.19-.76,18.83.14,21.93.39Z"/>
      <path class="cls-11" d="M341.36,152.86c-6.98-.57-14.65.41-21.7,0l5.19,2.66c11.49,8.34,8.88,24.98-4.44,29.52-21.95,1.44-44.57,2.09-66.62.75-.49-.04-1.02.07-1.5,0-7.02-.96-13.57-7.96-14.22-14.97l-1.54-.78c.42-4.33,1.19-11.68,6.03-12.7,1.83-1.96,6.63-4.2,9.35-4.49,18.81-2.03,43.34.43,62.97.06,1.35-.03,2.4-.8,2.53-.8,6.58-.15,13.25-.08,19.85-.01,1.27.01,3.33-.48,4.11.76Z"/>
      <path class="cls-4" d="M102.58,140.14c6.93.38,9.97,2.09,12.56,8.78.23,13.03.29,26.1.17,39.13-.1,11.01,4.12,31.66-10.83,32.96-19.21,1.67-40.82-1.31-60.29-.03-5.93-.33-11.24-7.02-9.73-12.73l1.33-3.36c6.23-6.02,12.46-12.04,18.7-18.06l1.68.46,1.52-.58,8.92,8.53c1.56,1.89,3.81,1.35,5.83.38,3.87-1.86,23.22-21.1,24.28-24.69,2.88-9.72-8.25-8.48-11.9-1.88l-11.63,12.31c-2.47,3.77-7.77.32-7.29-3.05l-.59-1.54c11.44-11.91,22.89-23.82,34.34-35.75l2.93-.89Z"/>
      <path class="cls-1" d="M34.46,316.79l1.33-3.35c6.22-6.03,12.46-12.05,18.7-18.07l1.68.46,1.8-.28,8.6,7.79c1.14.93,2.43,1.68,3.94,1.26,3.7-1.02,26.02-22.97,26.72-26.34,1.35-6.43-5.29-8.44-9.4-4.47l-13.32,14.04c-3.19,4.8-9.63,3.81-8.62-1.73-.38-.46-.86-1.24-.58-1.54,9.85-10.72,21.29-22.51,31.88-32.52,1.64-2.24,3.68-3.61,6.13-4.11,6.04.49,11.04,3.81,11.91,10.17,2.49,18.3-1.72,41.72.07,60.57-.91,6.78-5.82,10.19-12.36,10.84-17.95-1.48-39.25,2.06-56.8-.07-6.54-.79-12.69-5.51-11.69-12.64Z"/>
      <path class="cls-13" d="M223.09,49.56c6.15.04,22.22-1.11,26.99.34,6.2,1.88,5.83,12.24-1.89,13.16-10.37,1.23-25.37-.07-36.32-.02-44.28.2-88.59-.17-132.88.02-7.14-.84-8.76-9.52-2.41-12.92,48.69-.8,97.73-.89,146.52-.57Z"/>
      <path class="cls-13" d="M199.89,80.25c3.38.07,7.45-.4,10.68.18,8.02,1.44,7.43,12.45.21,13.33l-170.32-.03c-8.47-1.97-7.52-12.46,1.11-13.49,52.74.88,105.61-1.12,158.33.02Z"/>
      <path class="cls-12" d="M70.39,247.93c10.35-.08,22.85-.82,32.94,0l-37.43,38.18-1.97.19c-8.38-10.31-17.28-1.01-7.6,7.52l-.16,2.02-21.71,20.96c1.7-18.5-2.28-41.14,0-59.13.54-4.23,4.85-8.54,8.94-9.4,6.79-1.43,19.45-.27,26.99-.33Z"/>
      <path class="cls-13" d="M214.62,298.32c4.15,4.54.81,11.77-5.38,11.74-19.45-1.6-42.35,2.15-61.38,0-9.64-1.09-9.15-12.57-1.53-13.51,19.68-2.41,44.22,1.9,64.43,0,1.25.12,3.02.86,3.85,1.77Z"/>
      <path class="cls-7" d="M145.03,188.95l66.42-.12c6.69,1.05,7.04,11.8-.69,12.7-20.05,2.33-44.57-1.74-65.1-.06-6.59-1.03-6.58-11.19-.63-12.52Z"/>
      <path class="cls-6" d="M252.28,267.39c.01,3.54-.76,7.69-.75,10.48-1.25.85-2.66.73-4.08.78-21.41.75-42.97-.61-64.4-.05-6.44-2.23-5.5-12.16,1.46-12.73,20.71,1.5,44.04-1.93,64.43-.02,1.41.13,2.3.65,3.33,1.53Z"/>
      <path class="cls-6" d="M242.55,157.35c-2.67,2.85-4.86,9.52-4.49,13.47l-54.22-.04c-8.06-2.26-6.1-13.19,2.2-13.43h56.51Z"/>
      <path class="cls-6" d="M145.79,157.53c6.77-1.36,24.39-.67,18.08,10.6-2.07,3.69-13.46,3.2-17.52,2.72-8.38-.99-8.07-11.81-.56-13.32Z"/>
      <path class="cls-13" d="M141.74,276.88c-2.98-3.27-1.5-9.66,2.54-10.84,1.83-.53,13.29-.46,15.52-.11,6.47,1.01,6.49,11.04,1.39,12.53-1.86.54-13.23.48-15.6.19-1.26-.15-3.01-.85-3.85-1.77Z"/>
      <path class="cls-3" d="M102.58,140.14l-36.68,38.18-1.9.26c-7.65-10.35-17.53-1.78-7.66,6.73l-.17,2-21.71,20.96c1.64-18.48-2.18-40.75-.02-58.78.57-4.75,5.36-8.98,10.12-9.34,19.1.78,39.02-1.05,58.01,0Z"/>
      <path class="cls-6" d="M39.5,49.74c2.7-.54,13.39-.54,15.73.4,4.81,1.93,5.09,9.67.47,12.06-2.39,1.24-11.88,1.22-14.89.86-8.68-1.02-8.54-11.86-1.31-13.32Z"/>
      <path class="cls-14" d="M307.68,216.49l1.5.52-.1,97.64c-.27,11.02-8.41,24.1-20.11,24.59-9.93-3.34-17.96-13.61-17.96-24.33v-97.31c0-.82,1.83-1.07,2.58-1.16,9.57-1.12,23.97-.01,34.1.04Z"/>
      <path class="cls-2" d="M307.68,216.49c5.23.03,10.49-.02,15.72,0v100.68c0,1.47-2.3,7.93-3.12,9.6-5.69,11.56-19.27,16.53-31.31,12.48,10.73-4.23,17.51-11.92,18.62-23.68l.1-99.08Z"/>
      <path class="cls-9" d="M320.4,185.05c.1,0,.86.77,1.82.78,5.25.02,10.54-.18,15.79-.03.65.02,2.7-.31,1.48.75-27.19-.27-54.41.35-81.6,0-1.27-.02-3.33.48-4.11-.76,21.88,1.66,44.82-.8,66.62-.75Z"/>
      <path class="cls-5" d="M56.17,187.3c-3.47-3.7-8.78-8.57-3.39-13.5s9.78,1.48,13.12,4.51c1.36,1.23,2.95,2.26,4.12,3.73,1.38,0,15.98-17.59,19.68-19.26,6.33-2.86,11.98,4.08,7.2,10.97-2.85,4.11-17.06,18.06-21.26,21.41-2.64,2.11-4.81,3.56-8.46,2.46-.72-.22-9.75-8.98-11-10.32Z"/>
      <path class="cls-5" d="M56.17,295.83c-3.31-3.58-8.4-8.42-4.09-13.45,4.87-5.68,10.15.24,13.82,3.72,1.09,1.04,2.59,4.39,4.48,3.41,4.55-3.14,15.14-17.42,19.43-18.8,6.87-2.21,11.6,4.18,7.87,10.11-2.01,3.19-18.85,19.66-22.4,22.51-2.21,1.77-4.09,3.47-7.14,2.65-2.41-.65-9.92-7.93-11.97-10.16Z"/>
    </g>
  </g>
</svg>